<svg xmlns="http://www.w3.org/2000/svg" aria-hidden="true" role="img" width="512" height="512" viewBox="0 0 512 512">
   <path
      fill="#c39f00"
      d="m 222.12076,478.64894 -21.66586,-20.70471 71.74684,-71.10014 71.74685,-71.10015 v 54.95957 54.95956 l -37.37682,36.84527 -37.37681,36.84526 h -12.70417 -12.70417 z"
   />
   <path
      fill="#3364a3"
      d="m 428.45056,266.49697 0.21888,-75.72574 0.0707,-7.12715 -0.004,-11.80428 38.72401,39.1091 33.37529,33.74838 v 12.41304 12.41304 l -36.30164,36.34967 -36.30169,36.34967 z"
   />
   <path
      fill="#4d9905"
      d="M 271.24512,126.31906 200.4549,56.092849 222.12076,35.400874 243.78662,14.708898 h 12.40603 12.40603 l 37.79273,36.916296 37.79272,36.916296 -1.07439,54.00189 -1.0744,54.00188 z"
   />
   <path
      fill="#cb0000"
      d="M 77.023614,335.57139 11.043245,270.20433 V 256.95121 243.6981 l 66.045917,-65.27183 66.045918,-65.27182 72.63954,71.95094 72.63954,71.95095 -72.70509,71.94106 -72.70509,71.94103 z"
   />
</svg>
